<mxfile host="app.diagrams.net" agent="Mozilla/5.0 (Windows NT 10.0; Win64; x64) AppleWebKit/537.36 (KHTML, like Gecko) Chrome/140.0.0.0 Safari/537.36" version="28.1.1">
  <diagram name="Page-1" id="04vF4BHMbiJNl363inTT">
    <mxGraphModel dx="983" dy="536" grid="1" gridSize="10" guides="1" tooltips="1" connect="1" arrows="1" fold="1" page="1" pageScale="1" pageWidth="850" pageHeight="1100" math="0" shadow="0">
      <root>
        <mxCell id="0" />
        <mxCell id="1" parent="0" />
        <mxCell id="Xp768wxX1MOLNDLWDE36-3" value="" style="edgeStyle=orthogonalEdgeStyle;rounded=0;orthogonalLoop=1;jettySize=auto;html=1;" edge="1" parent="1" source="Xp768wxX1MOLNDLWDE36-1" target="Xp768wxX1MOLNDLWDE36-2">
          <mxGeometry relative="1" as="geometry" />
        </mxCell>
        <mxCell id="Xp768wxX1MOLNDLWDE36-1" value="Begin" style="ellipse;whiteSpace=wrap;html=1;" vertex="1" parent="1">
          <mxGeometry x="170" y="80" width="100" height="40" as="geometry" />
        </mxCell>
        <mxCell id="Xp768wxX1MOLNDLWDE36-5" value="" style="edgeStyle=orthogonalEdgeStyle;rounded=0;orthogonalLoop=1;jettySize=auto;html=1;" edge="1" parent="1" source="Xp768wxX1MOLNDLWDE36-2" target="Xp768wxX1MOLNDLWDE36-4">
          <mxGeometry relative="1" as="geometry" />
        </mxCell>
        <mxCell id="Xp768wxX1MOLNDLWDE36-2" value="i=1;&lt;br&gt;j=0" style="rounded=0;whiteSpace=wrap;html=1;" vertex="1" parent="1">
          <mxGeometry x="160" y="160" width="120" height="40" as="geometry" />
        </mxCell>
        <mxCell id="Xp768wxX1MOLNDLWDE36-7" style="edgeStyle=orthogonalEdgeStyle;rounded=0;orthogonalLoop=1;jettySize=auto;html=1;exitX=1;exitY=0.5;exitDx=0;exitDy=0;entryX=0;entryY=0.5;entryDx=0;entryDy=0;" edge="1" parent="1" source="Xp768wxX1MOLNDLWDE36-4" target="Xp768wxX1MOLNDLWDE36-6">
          <mxGeometry relative="1" as="geometry" />
        </mxCell>
        <mxCell id="Xp768wxX1MOLNDLWDE36-20" style="edgeStyle=orthogonalEdgeStyle;rounded=0;orthogonalLoop=1;jettySize=auto;html=1;entryX=0.5;entryY=0;entryDx=0;entryDy=0;" edge="1" parent="1" source="Xp768wxX1MOLNDLWDE36-4" target="Xp768wxX1MOLNDLWDE36-19">
          <mxGeometry relative="1" as="geometry" />
        </mxCell>
        <mxCell id="Xp768wxX1MOLNDLWDE36-4" value="i&amp;lt;N" style="rhombus;whiteSpace=wrap;html=1;" vertex="1" parent="1">
          <mxGeometry x="160" y="270" width="120" height="50" as="geometry" />
        </mxCell>
        <mxCell id="Xp768wxX1MOLNDLWDE36-9" style="edgeStyle=orthogonalEdgeStyle;rounded=0;orthogonalLoop=1;jettySize=auto;html=1;entryX=0.5;entryY=0;entryDx=0;entryDy=0;" edge="1" parent="1" source="Xp768wxX1MOLNDLWDE36-6" target="Xp768wxX1MOLNDLWDE36-8">
          <mxGeometry relative="1" as="geometry" />
        </mxCell>
        <mxCell id="Xp768wxX1MOLNDLWDE36-16" style="edgeStyle=orthogonalEdgeStyle;rounded=0;orthogonalLoop=1;jettySize=auto;html=1;entryX=0.5;entryY=1;entryDx=0;entryDy=0;" edge="1" parent="1" source="Xp768wxX1MOLNDLWDE36-6" target="Xp768wxX1MOLNDLWDE36-15">
          <mxGeometry relative="1" as="geometry" />
        </mxCell>
        <mxCell id="Xp768wxX1MOLNDLWDE36-6" value="j&amp;lt;N-2" style="rhombus;whiteSpace=wrap;html=1;" vertex="1" parent="1">
          <mxGeometry x="380" y="270" width="120" height="50" as="geometry" />
        </mxCell>
        <mxCell id="Xp768wxX1MOLNDLWDE36-11" value="" style="edgeStyle=orthogonalEdgeStyle;rounded=0;orthogonalLoop=1;jettySize=auto;html=1;" edge="1" parent="1" source="Xp768wxX1MOLNDLWDE36-8" target="Xp768wxX1MOLNDLWDE36-10">
          <mxGeometry relative="1" as="geometry" />
        </mxCell>
        <mxCell id="Xp768wxX1MOLNDLWDE36-8" value="a[j]&amp;gt;a[j+1]" style="rhombus;whiteSpace=wrap;html=1;" vertex="1" parent="1">
          <mxGeometry x="380" y="360" width="120" height="50" as="geometry" />
        </mxCell>
        <mxCell id="Xp768wxX1MOLNDLWDE36-13" style="edgeStyle=orthogonalEdgeStyle;rounded=0;orthogonalLoop=1;jettySize=auto;html=1;entryX=0.5;entryY=1;entryDx=0;entryDy=0;" edge="1" parent="1" source="Xp768wxX1MOLNDLWDE36-10" target="Xp768wxX1MOLNDLWDE36-12">
          <mxGeometry relative="1" as="geometry" />
        </mxCell>
        <mxCell id="Xp768wxX1MOLNDLWDE36-10" value="temp = a[j+1]&lt;br&gt;a[j+1]=a[j]&lt;br&gt;a[j]=temp" style="rounded=0;whiteSpace=wrap;html=1;" vertex="1" parent="1">
          <mxGeometry x="380" y="440" width="120" height="80" as="geometry" />
        </mxCell>
        <mxCell id="Xp768wxX1MOLNDLWDE36-14" style="edgeStyle=orthogonalEdgeStyle;rounded=0;orthogonalLoop=1;jettySize=auto;html=1;entryX=1;entryY=0.5;entryDx=0;entryDy=0;" edge="1" parent="1" source="Xp768wxX1MOLNDLWDE36-12" target="Xp768wxX1MOLNDLWDE36-6">
          <mxGeometry relative="1" as="geometry">
            <Array as="points">
              <mxPoint x="600" y="295" />
            </Array>
          </mxGeometry>
        </mxCell>
        <mxCell id="Xp768wxX1MOLNDLWDE36-12" value="j++" style="rounded=0;whiteSpace=wrap;html=1;" vertex="1" parent="1">
          <mxGeometry x="560" y="360" width="80" height="40" as="geometry" />
        </mxCell>
        <mxCell id="Xp768wxX1MOLNDLWDE36-18" style="edgeStyle=orthogonalEdgeStyle;rounded=0;orthogonalLoop=1;jettySize=auto;html=1;" edge="1" parent="1" source="Xp768wxX1MOLNDLWDE36-15">
          <mxGeometry relative="1" as="geometry">
            <mxPoint x="220" y="225" as="targetPoint" />
          </mxGeometry>
        </mxCell>
        <mxCell id="Xp768wxX1MOLNDLWDE36-15" value="j++" style="rounded=0;whiteSpace=wrap;html=1;" vertex="1" parent="1">
          <mxGeometry x="400" y="210" width="80" height="30" as="geometry" />
        </mxCell>
        <mxCell id="Xp768wxX1MOLNDLWDE36-19" value="End" style="ellipse;whiteSpace=wrap;html=1;" vertex="1" parent="1">
          <mxGeometry x="180" y="520" width="80" height="40" as="geometry" />
        </mxCell>
        <mxCell id="Xp768wxX1MOLNDLWDE36-22" value="True" style="text;strokeColor=none;align=center;fillColor=none;html=1;verticalAlign=middle;whiteSpace=wrap;rounded=0;" vertex="1" parent="1">
          <mxGeometry x="440" y="330" width="50" height="20" as="geometry" />
        </mxCell>
        <mxCell id="Xp768wxX1MOLNDLWDE36-23" value="True" style="text;strokeColor=none;align=center;fillColor=none;html=1;verticalAlign=middle;whiteSpace=wrap;rounded=0;" vertex="1" parent="1">
          <mxGeometry x="290" y="280" width="50" height="20" as="geometry" />
        </mxCell>
        <mxCell id="Xp768wxX1MOLNDLWDE36-24" value="True" style="text;strokeColor=none;align=center;fillColor=none;html=1;verticalAlign=middle;whiteSpace=wrap;rounded=0;" vertex="1" parent="1">
          <mxGeometry x="430" y="410" width="50" height="20" as="geometry" />
        </mxCell>
        <mxCell id="Xp768wxX1MOLNDLWDE36-25" value="False" style="text;strokeColor=none;align=center;fillColor=none;html=1;verticalAlign=middle;whiteSpace=wrap;rounded=0;" vertex="1" parent="1">
          <mxGeometry x="440" y="250" width="50" height="20" as="geometry" />
        </mxCell>
        <mxCell id="Xp768wxX1MOLNDLWDE36-26" value="False" style="text;strokeColor=none;align=center;fillColor=none;html=1;verticalAlign=middle;whiteSpace=wrap;rounded=0;" vertex="1" parent="1">
          <mxGeometry x="220" y="330" width="50" height="20" as="geometry" />
        </mxCell>
        <mxCell id="Xp768wxX1MOLNDLWDE36-27" value="False" style="text;strokeColor=none;align=center;fillColor=none;html=1;verticalAlign=middle;whiteSpace=wrap;rounded=0;" vertex="1" parent="1">
          <mxGeometry x="500" y="370" width="50" height="20" as="geometry" />
        </mxCell>
        <mxCell id="Xp768wxX1MOLNDLWDE36-28" style="edgeStyle=orthogonalEdgeStyle;rounded=0;orthogonalLoop=1;jettySize=auto;html=1;exitX=1;exitY=0.5;exitDx=0;exitDy=0;entryX=0;entryY=0.617;entryDx=0;entryDy=0;entryPerimeter=0;" edge="1" parent="1" source="Xp768wxX1MOLNDLWDE36-8" target="Xp768wxX1MOLNDLWDE36-12">
          <mxGeometry relative="1" as="geometry" />
        </mxCell>
      </root>
    </mxGraphModel>
  </diagram>
</mxfile>
